<svg xmlns="http://www.w3.org/2000/svg" xmlns:xlink="http://www.w3.org/1999/xlink" width="36" height="35" viewBox="0 0 36 35"><defs><path id="v3z1a" d="M1319.71 5808.007c9.784 0 17.715 7.756 17.715 17.325 0 9.568-7.931 17.324-17.714 17.324-9.784 0-17.715-7.756-17.715-17.324 0-9.569 7.931-17.325 17.715-17.325z"/><path id="v3z1c" d="M1317.154 5820.052v2.406h-1.856v2.411h1.856v9.034h3.712v-8.432l2.195-.306s.17-1.238.28-2.707h-2.475v-1.805c0-.286.228-.601.619-.601h.653c0-.381 1.203-1.796 1.203-3.012h-2.475c-3.804 0-3.712 2.592-3.712 3.012z"/><clipPath id="v3z1b"><use fill="#fff" xlink:href="#v3z1a"/></clipPath></defs><g><g transform="translate(-1302 -5808)"><use fill="#fff" fill-opacity="0" stroke="#c3c3c3" stroke-miterlimit="50" stroke-width="4" clip-path="url(&quot;#v3z1b&quot;)" xlink:href="#v3z1a"/></g><g transform="translate(-1302 -5808)"><use fill="#c3c3c3" xlink:href="#v3z1c"/></g></g></svg>