<svg xmlns="http://www.w3.org/2000/svg" xmlns:xlink="http://www.w3.org/1999/xlink" width="37" height="35" viewBox="0 0 37 35"><defs><path id="tf38a" d="M1427.501 5808.028c9.78 0 17.707 7.76 17.707 17.335 0 9.575-7.928 17.336-17.707 17.336-9.778 0-17.706-7.761-17.706-17.336s7.928-17.335 17.706-17.335z"/><path id="tf38c" d="M1436.186 5821.917v7.456c0 2.532-2.105 4.594-4.692 4.594h-7.617c-2.586 0-4.691-2.062-4.691-4.594v-7.456c0-2.53 2.105-4.592 4.691-4.592h7.617c2.587 0 4.692 2.061 4.692 4.592zm-8.5-.559c-2.416 0-4.38 1.923-4.38 4.286 0 2.365 1.964 4.29 4.38 4.29 2.415 0 4.38-1.925 4.38-4.29 0-2.363-1.965-4.286-4.38-4.286zm0 7.1c-1.584 0-2.872-1.262-2.872-2.814 0-1.547 1.288-2.81 2.872-2.81 1.583 0 2.872 1.263 2.872 2.81 0 1.552-1.289 2.813-2.872 2.813zm4.564-8.352c-.29 0-.576.116-.781.317-.207.2-.325.48-.325.766 0 .285.118.564.325.766.205.2.49.316.78.316.292 0 .577-.117.783-.316.206-.202.324-.481.324-.766 0-.286-.118-.566-.324-.766a1.126 1.126 0 0 0-.782-.317z"/><clipPath id="tf38b"><use fill="#fff" xlink:href="#tf38a"/></clipPath></defs><g><g transform="translate(-1409 -5808)"><use fill="#fff" fill-opacity="0" stroke="#c3c3c3" stroke-miterlimit="50" stroke-width="4" clip-path="url(&quot;#tf38b&quot;)" xlink:href="#tf38a"/></g><g transform="translate(-1409 -5808)"><use fill="#c3c3c3" xlink:href="#tf38c"/></g></g></svg>