<svg xmlns="http://www.w3.org/2000/svg" xmlns:xlink="http://www.w3.org/1999/xlink" width="36" height="35" viewBox="0 0 36 35"><defs><path id="zodsa" d="M1481.285 5808.028c9.779 0 17.706 7.76 17.706 17.335 0 9.575-7.927 17.336-17.706 17.336s-17.706-7.761-17.706-17.336 7.927-17.335 17.706-17.335z"/><path id="zodsc" d="M1480.855 5828.426c-1.498-.15-2.849-.507-4.005-1.382-.144-.108-.292-.214-.423-.335-.506-.47-.557-1.009-.156-1.563.342-.475.918-.602 1.515-.33.116.054.226.12.332.19 2.155 1.432 5.115 1.472 7.279.065a1.99 1.99 0 0 1 .708-.355c.517-.128.998.056 1.275.492.317.499.312.986-.077 1.373-.599.594-1.318 1.023-2.117 1.323-.756.283-1.584.425-2.403.52.123.13.181.195.259.27 1.113 1.08 2.23 2.157 3.339 3.241.378.37.456.828.249 1.257-.228.47-.737.779-1.236.746-.317-.021-.564-.174-.783-.387-.84-.817-1.695-1.619-2.517-2.451-.24-.242-.355-.196-.566.014a164.26 164.26 0 0 1-2.567 2.492c-.387.369-.849.436-1.298.225-.478-.224-.783-.696-.76-1.17.017-.321.18-.566.408-.786 1.1-1.062 2.199-2.128 3.297-3.194.073-.07.141-.145.247-.255zm.912-3.702c-2.672-.01-4.863-2.151-4.848-4.739.016-2.616 2.208-4.725 4.907-4.718 2.704.007 4.874 2.146 4.86 4.79-.013 2.582-2.22 4.675-4.919 4.667zm2.429-4.733c-.005-1.284-1.063-2.308-2.39-2.309-1.337-.001-2.405 1.04-2.394 2.337.01 1.28 1.077 2.295 2.407 2.291 1.326-.004 2.381-1.034 2.377-2.319z"/><clipPath id="zodsb"><use fill="#fff" xlink:href="#zodsa"/></clipPath></defs><g><g transform="translate(-1463 -5808)"><use fill="#fff" fill-opacity="0" stroke="#c3c3c3" stroke-miterlimit="50" stroke-width="4" clip-path="url(&quot;#zodsb&quot;)" xlink:href="#zodsa"/></g><g transform="translate(-1463 -5808)"><use fill="#c3c3c3" xlink:href="#zodsc"/></g></g></svg>