<svg xmlns="http://www.w3.org/2000/svg" xmlns:xlink="http://www.w3.org/1999/xlink" width="37" height="35" viewBox="0 0 37 35"><defs><path id="bm4ra" d="M1373.54 5808.336c9.786 0 17.719 7.761 17.719 17.334 0 9.574-7.933 17.337-17.718 17.337-9.786 0-17.719-7.763-17.719-17.337 0-9.573 7.933-17.334 17.719-17.334z"/><path id="bm4rc" d="M1381.209 5825.539c.29-.377.521-.68.692-.91 1.227-1.642 1.76-2.69 1.596-3.146l-.064-.108c-.042-.065-.152-.123-.33-.176-.177-.056-.404-.064-.68-.027l-3.066.023a.79.79 0 0 0-.213.004.616.616 0 0 0-.139.03c-.021.012-.039.02-.053.029l-.042.032a.496.496 0 0 0-.117.11.784.784 0 0 0-.107.188 17.452 17.452 0 0 1-1.139 2.41c-.262.443-.504.825-.723 1.151-.22.324-.405.564-.554.718a4.005 4.005 0 0 1-.404.368c-.121.093-.213.131-.277.119l-.18-.043a.708.708 0 0 1-.24-.262c-.06-.112-.102-.25-.123-.418a4.518 4.518 0 0 1-.037-.436c-.004-.12-.002-.29.005-.512.007-.22.01-.372.01-.449 0-.272.006-.565.017-.883l.026-.755c.007-.186.011-.382.011-.59 0-.207-.012-.368-.037-.485a1.678 1.678 0 0 0-.112-.344.575.575 0 0 0-.218-.257 1.235 1.235 0 0 0-.357-.147c-.376-.083-.855-.13-1.437-.137-1.32-.015-2.168.074-2.544.259a1.448 1.448 0 0 0-.404.32c-.128.157-.146.242-.053.256.426.066.727.218.904.461l.064.129c.05.092.1.255.15.492.049.235.08.495.095.782.035.52.035.966 0 1.338-.035.372-.069.661-.101.866-.032.206-.08.377-.144.504-.063.128-.106.21-.128.238a.21.21 0 0 1-.053.05.805.805 0 0 1-.287.054c-.1 0-.22-.05-.362-.15-.142-.1-.29-.236-.442-.412a5.336 5.336 0 0 1-.516-.734c-.192-.315-.39-.686-.596-1.114l-.17-.31c-.107-.199-.252-.489-.437-.871a16.808 16.808 0 0 1-.49-1.109.722.722 0 0 0-.255-.344l-.053-.03a.796.796 0 0 0-.17-.092 1.382 1.382 0 0 0-.245-.07l-2.917.023c-.298 0-.5.067-.606.203l-.043.063a.359.359 0 0 0-.032.173c0 .078.022.175.064.29a35.735 35.735 0 0 0 1.39 2.911c.5.933.934 1.687 1.303 2.259.37.569.745 1.11 1.129 1.617.383.507.637.83.76.974.125.141.222.25.293.321l.266.258c.17.17.42.377.75.618.33.235.696.474 1.097.703.4.233.868.42 1.4.568.532.148 1.05.204 1.554.177h1.224c.248-.02.436-.1.564-.235l.042-.053a.786.786 0 0 0 .08-.2c.025-.087.038-.186.038-.293a3.534 3.534 0 0 1 .069-.83c.053-.247.113-.431.18-.558.068-.123.144-.229.23-.313a1.05 1.05 0 0 1 .18-.159c.036-.016.065-.026.086-.034.17-.058.37-.002.601.164.23.168.447.376.65.622.202.246.445.521.729.829.283.306.532.536.745.685l.213.128c.142.086.326.163.553.237.227.071.426.09.596.05l2.725-.04c.27 0 .48-.044.628-.132.15-.09.238-.189.266-.297a.83.83 0 0 0 .006-.363 1.273 1.273 0 0 0-.075-.282c-.025-.056-.048-.097-.07-.136-.354-.643-1.032-1.43-2.032-2.367l-.021-.021-.011-.01-.01-.01h-.011c-.455-.436-.742-.727-.862-.878-.22-.285-.27-.575-.15-.87.085-.22.404-.687.958-1.402z"/><clipPath id="bm4rb"><use fill="#fff" xlink:href="#bm4ra"/></clipPath></defs><g><g transform="translate(-1355 -5808)"><use fill="#fff" fill-opacity="0" stroke="#c3c3c3" stroke-miterlimit="50" stroke-width="4" clip-path="url(&quot;#bm4rb&quot;)" xlink:href="#bm4ra"/></g><g transform="translate(-1355 -5808)"><use fill="#c3c3c3" xlink:href="#bm4rc"/></g></g></svg>